<svg width="120" height="120" viewBox="0 0 120 120" fill="none" xmlns="http://www.w3.org/2000/svg">
<circle cx="60" cy="60" r="60" fill="#006341" fill-opacity="0.2"/>
<circle cx="60.3999" cy="60.4004" r="46" fill="#006341" fill-opacity="0.8"/>
<g clip-path="url(#clip0_682_8646)">
<path d="M55.5145 66.9448C54.7334 67.7252 53.4676 67.7249 52.6868 66.9441L46.7526 61.0099C45.9735 60.2308 44.711 60.2285 43.9291 61.0049L43.7856 61.1475C42.9998 61.9277 42.9975 63.1979 43.7805 63.9809L52.6861 72.8864C53.4672 73.6675 54.7335 73.6675 55.5145 72.8864L77.8861 50.5149C78.6672 49.7338 78.6672 48.4675 77.8861 47.6864L77.7529 47.5532C76.9721 46.7724 75.7063 46.7721 74.9251 47.5525L55.5145 66.9448Z" fill="#F2F2F2"/>
</g>
<defs>
<clipPath id="clip0_682_8646">
<rect width="50.4" height="50.4" fill="white" transform="translate(35.2002 34.4004)"/>
</clipPath>
</defs>
</svg>
