<svg width="24" height="24" viewBox="0 0 24 24" fill="none" xmlns="http://www.w3.org/2000/svg">
<path d="M3.54785 20.938H20.4479C20.5805 20.938 20.7076 20.8853 20.8014 20.7915C20.8952 20.6978 20.9479 20.5706 20.9479 20.438C20.9479 20.3054 20.8952 20.1782 20.8014 20.0844C20.7076 19.9907 20.5805 19.938 20.4479 19.938H3.54785C3.41524 19.938 3.28807 19.9907 3.1943 20.0844C3.10053 20.1782 3.04785 20.3054 3.04785 20.438C3.04785 20.5706 3.10053 20.6978 3.1943 20.7915C3.28807 20.8853 3.41524 20.938 3.54785 20.938ZM9.70985 17.18C10.132 17.0612 10.5173 16.8376 10.8299 16.53L20.3699 6.98999C20.6966 6.662 20.88 6.21793 20.88 5.75499C20.88 5.29205 20.6966 4.84798 20.3699 4.51999L19.4299 3.58999C19.097 3.2727 18.6547 3.0957 18.1949 3.0957C17.735 3.0957 17.2927 3.2727 16.9599 3.58999L7.41985 13.12C7.11222 13.4309 6.89154 13.8171 6.77985 14.24L6.03985 17C6.00506 17.1261 6.00431 17.2591 6.03769 17.3856C6.07107 17.5121 6.13737 17.6275 6.22985 17.72C6.37157 17.8589 6.56144 17.9377 6.75985 17.94L9.70985 17.18ZM10.1199 15.82C9.93544 16.0076 9.70406 16.1423 9.44985 16.21L8.47985 16.47L7.47985 15.47L7.73985 14.5C7.8089 14.2463 7.94339 14.0153 8.12985 13.83L8.50985 13.46L10.4999 15.45L10.1199 15.82ZM11.2099 14.74L9.21985 12.75L15.9499 6.01999L17.9399 8.00999L11.2099 14.74ZM19.6599 6.28999L18.6499 7.29999L16.6599 5.30999L17.6699 4.28999C17.8105 4.14954 18.0011 4.07065 18.1999 4.07065C18.3986 4.07065 18.5892 4.14954 18.7299 4.28999L19.6599 5.22999C19.7993 5.37113 19.8776 5.56156 19.8776 5.75999C19.8776 5.95842 19.7993 6.14885 19.6599 6.28999Z" fill="#003E85"/>
</svg>
