<svg width="24" height="24" viewBox="0 0 24 24" fill="none" xmlns="http://www.w3.org/2000/svg">
<g clip-path="url(#clip0_308_5387)">
<path d="M6.66667 6.66658C6.84348 6.66658 7.01305 6.59635 7.13807 6.47132C7.2631 6.3463 7.33333 6.17673 7.33333 5.99992V1.99992C7.33333 1.82311 7.2631 1.65354 7.13807 1.52851C7.01305 1.40349 6.84348 1.33325 6.66667 1.33325C6.48986 1.33325 6.32029 1.40349 6.19526 1.52851C6.07024 1.65354 6 1.82311 6 1.99992V5.99992C6 6.17673 6.07024 6.3463 6.19526 6.47132C6.32029 6.59635 6.48986 6.66658 6.66667 6.66658Z" fill="#003E85"/>
<path d="M17.3334 6.66658C17.5102 6.66658 17.6797 6.59635 17.8048 6.47132C17.9298 6.3463 18 6.17673 18 5.99992V1.99992C18 1.82311 17.9298 1.65354 17.8048 1.52851C17.6797 1.40349 17.5102 1.33325 17.3334 1.33325C17.1565 1.33325 16.987 1.40349 16.8619 1.52851C16.7369 1.65354 16.6667 1.82311 16.6667 1.99992V5.99992C16.6667 6.17673 16.7369 6.3463 16.8619 6.47132C16.987 6.59635 17.1565 6.66658 17.3334 6.66658Z" fill="#003E85"/>
<path d="M21.5 4.00008H18.8334V6.00008C18.8334 6.38906 18.6788 6.76211 18.4038 7.03717C18.1287 7.31222 17.7557 7.46674 17.3667 7.46674C16.9777 7.46674 16.6047 7.31222 16.3296 7.03717C16.0546 6.76211 15.9 6.38906 15.9 6.00008V4.00008H8.13336V6.00008C8.13336 6.38906 7.97884 6.76211 7.70379 7.03717C7.42873 7.31222 7.05568 7.46674 6.6667 7.46674C6.27771 7.46674 5.90466 7.31222 5.62961 7.03717C5.35455 6.76211 5.20003 6.38906 5.20003 6.00008V4.00008H2.53336C2.37471 3.99827 2.21731 4.0283 2.07046 4.08838C1.92362 4.14847 1.79032 4.23739 1.67844 4.34989C1.56656 4.46239 1.47838 4.59619 1.4191 4.74336C1.35983 4.89054 1.33068 5.0481 1.33336 5.20674V20.1267C1.33071 20.2826 1.35879 20.4374 1.41599 20.5824C1.47319 20.7274 1.5584 20.8597 1.66674 20.9717C1.77508 21.0838 1.90443 21.1734 2.04741 21.2355C2.19038 21.2975 2.34419 21.3308 2.50003 21.3334H21.5C21.6559 21.3308 21.8097 21.2975 21.9527 21.2355C22.0956 21.1734 22.225 21.0838 22.3333 20.9717C22.4417 20.8597 22.5269 20.7274 22.5841 20.5824C22.6413 20.4374 22.6693 20.2826 22.6667 20.1267V5.20674C22.6693 5.0509 22.6413 4.89607 22.5841 4.75108C22.5269 4.60609 22.4417 4.47379 22.3333 4.36174C22.225 4.24968 22.0956 4.16007 21.9527 4.09802C21.8097 4.03596 21.6559 4.00268 21.5 4.00008ZM17.2934 11.0534L10.8467 17.5001L7.33336 13.9601C7.17771 13.7889 7.0934 13.5647 7.09769 13.3333C7.10198 13.102 7.19455 12.881 7.35645 12.7157C7.51834 12.5504 7.73731 12.4533 7.9685 12.4442C8.1997 12.4351 8.42563 12.5147 8.60003 12.6667L10.8534 14.9201L16 9.77341C16.0845 9.68893 16.1848 9.62191 16.2952 9.57619C16.4056 9.53047 16.5239 9.50693 16.6434 9.50693C16.7628 9.50693 16.8812 9.53047 16.9915 9.57619C17.1019 9.62191 17.2022 9.68893 17.2867 9.77341C17.3712 9.85789 17.4382 9.95819 17.4839 10.0686C17.5296 10.179 17.5532 10.2973 17.5532 10.4167C17.5532 10.5362 17.5296 10.6545 17.4839 10.7649C17.4382 10.8753 17.3712 10.9756 17.2867 11.0601L17.2934 11.0534Z" fill="#003E85"/>
</g>
<defs>
<clipPath id="clip0_308_5387">
<rect width="24" height="24" fill="white"/>
</clipPath>
</defs>
</svg>
