<svg width="276" height="170" viewBox="0 0 276 170" fill="none" xmlns="http://www.w3.org/2000/svg">
<path d="M0 135.437L34.5 135.328L69 135.288L138 135.21L207 135.288L241.5 135.328L276 135.437L241.5 135.551L207 135.587L138 135.664L69 135.587L34.5 135.546L0 135.437Z" fill="#263238"/>
<path d="M138.908 169.266C210.786 169.266 269.055 162.881 269.055 155.005C269.055 147.129 210.786 140.744 138.908 140.744C67.0289 140.744 8.75977 147.129 8.75977 155.005C8.75977 162.881 67.0289 169.266 138.908 169.266Z" fill="url(#paint0_linear_117_1121)"/>
<path d="M108.611 152.644C107.554 153.003 77.2294 153.098 76.0675 152.381C75.6136 152.109 75.3549 147.692 75.1597 142.346C75.1189 141.193 75.0871 139.999 75.0598 138.792L72.6406 122.615L92.9158 122.483L94.8267 138.664L94.7495 142.223C94.7495 142.223 106.378 147.375 107.567 148.31C108.756 149.245 109.669 152.286 108.611 152.644Z" fill="#EB9481"/>
<path d="M108.61 152.644C107.553 153.002 77.2286 153.098 76.0666 152.381C75.531 152.045 75.2405 145.595 75.0771 138.791L94.8031 138.664L94.726 142.223C94.726 142.223 106.355 147.374 107.544 148.309C108.733 149.244 109.668 152.285 108.61 152.644Z" fill="white"/>
<path d="M108.611 152.644C107.553 153.002 77.2289 153.098 76.067 152.381C75.6131 152.108 75.3544 147.692 75.1592 142.345L94.7081 142.223C94.7081 142.223 106.337 147.374 107.526 148.309C108.715 149.244 109.668 152.285 108.611 152.644Z" fill="#A6A6A6"/>
<path d="M108.17 151.432C103.087 151.323 82.5711 151.373 77.5375 151.654C77.4966 151.654 77.4966 151.681 77.5375 151.686C82.5756 151.899 103.091 151.686 108.17 151.514C108.279 151.509 108.279 151.432 108.17 151.432Z" fill="#263238"/>
<path d="M105.588 147.225C105.023 147.212 104.461 147.317 103.938 147.532C103.416 147.748 102.943 148.07 102.551 148.477C101.837 149.205 101.434 150.181 101.426 151.201C101.426 151.232 101.48 151.232 101.485 151.201C101.654 150.197 102.143 149.274 102.879 148.57C103.615 147.867 104.559 147.42 105.57 147.297C105.579 147.3 105.59 147.298 105.598 147.293C105.607 147.288 105.613 147.28 105.615 147.27C105.618 147.26 105.616 147.25 105.611 147.242C105.606 147.233 105.598 147.227 105.588 147.225Z" fill="#263238"/>
<path d="M96.6964 142.722C94.663 142.699 92.3073 143.425 91.0455 145.096C91.0001 145.159 91.0909 145.227 91.1499 145.195C92.9264 144.258 94.798 143.512 96.7327 142.971C96.7626 142.963 96.7885 142.944 96.8055 142.918C96.8225 142.892 96.8294 142.861 96.8249 142.83C96.8205 142.8 96.8049 142.772 96.7812 142.752C96.7576 142.732 96.7274 142.721 96.6964 142.722Z" fill="#263238"/>
<path d="M98.2757 143.326C96.2377 143.326 93.882 144.034 92.6248 145.7C92.5748 145.768 92.6656 145.836 92.7292 145.804C94.5032 144.863 96.3734 144.116 98.3074 143.575C98.337 143.567 98.3626 143.549 98.3796 143.523C98.3965 143.498 98.4038 143.467 98.3999 143.437C98.396 143.406 98.3813 143.378 98.3585 143.358C98.3357 143.338 98.3063 143.326 98.2757 143.326Z" fill="#263238"/>
<path d="M99.8458 143.934C97.8124 143.934 95.4567 144.638 94.1949 146.308C94.1495 146.371 94.2403 146.44 94.2993 146.408C96.0759 145.47 97.9474 144.725 99.8821 144.184C99.912 144.176 99.9379 144.157 99.9549 144.131C99.9719 144.105 99.9788 144.074 99.9743 144.043C99.9699 144.012 99.9543 143.984 99.9307 143.964C99.907 143.944 99.8768 143.933 99.8458 143.934Z" fill="#263238"/>
<path d="M101.421 144.542C99.3828 144.519 97.0271 145.246 95.7698 146.916C95.7199 146.979 95.8152 147.047 95.8742 147.016C97.6505 146.077 99.5221 145.332 101.457 144.792C101.487 144.783 101.513 144.765 101.53 144.739C101.547 144.713 101.554 144.681 101.549 144.651C101.545 144.62 101.529 144.592 101.506 144.572C101.482 144.552 101.452 144.541 101.421 144.542Z" fill="#263238"/>
<path d="M78.8183 146.82C76.5489 146.82 76.5489 150.383 78.8183 150.37C81.0877 150.356 81.1059 146.807 78.8183 146.82Z" fill="#263238"/>
<path d="M98.8794 137.285C97.8491 136.431 96.5509 137.285 95.92 138.161C94.8698 139.709 94.2438 141.505 94.1045 143.371C94.1045 143.412 94.1363 143.43 94.168 143.43C94.1761 143.469 94.1932 143.505 94.2181 143.535C94.2429 143.565 94.2747 143.589 94.3107 143.605C94.3467 143.62 94.386 143.627 94.4251 143.624C94.4643 143.622 94.5022 143.609 94.5357 143.589C95.979 142.586 97.6494 141.687 98.7432 140.267C99.3651 139.44 99.8734 138.079 98.8794 137.285ZM96.4012 141.615C95.7022 142.128 94.9805 142.604 94.2997 143.144C94.6628 142.128 94.976 141.102 95.4389 140.121C95.6528 139.651 95.8985 139.196 96.1742 138.76C96.6281 138.083 98.6071 136.377 98.8158 138.587C98.9339 139.799 97.2318 141.006 96.4012 141.615Z" fill="#263238"/>
<path d="M89.0395 144.142C90.8096 144.406 92.6388 143.897 94.3772 143.62C94.4149 143.611 94.4498 143.592 94.4791 143.566C94.5084 143.541 94.5313 143.508 94.5458 143.472C94.5604 143.436 94.5663 143.397 94.563 143.358C94.5597 143.319 94.5474 143.282 94.527 143.248C94.5336 143.243 94.5389 143.237 94.5426 143.229C94.5463 143.222 94.5482 143.214 94.5482 143.205C94.5482 143.197 94.5463 143.189 94.5426 143.181C94.5389 143.174 94.5336 143.167 94.527 143.162C93.1302 141.916 91.4302 141.06 89.5977 140.679C88.5266 140.475 87.0106 140.77 86.8744 142.1C86.711 143.353 88.0046 143.979 89.0395 144.142ZM87.8049 142.99C86.4432 141.247 89.044 141.097 89.8247 141.278C90.3312 141.405 90.8286 141.566 91.3134 141.76C92.3062 142.171 93.2772 142.633 94.2229 143.144C93.3605 143.23 92.5117 143.384 91.6539 143.502C90.6281 143.639 88.5674 143.947 87.8049 142.99Z" fill="#263238"/>
<path d="M42.8291 47.8462C42.8291 47.8462 66.3723 87.8972 67.0032 90.7113C67.9699 95.0324 73.0943 137.702 73.0943 137.702L97.6043 137.248C97.6043 137.248 93.3831 99.6257 89.3844 87.23C86.5067 78.3021 65.7277 48.6904 65.7277 48.6904L42.8291 47.8462Z" fill="#37474F"/>
<path d="M95.3753 133.508C91.8577 133.48 79.3894 133.34 74.7052 133.775C74.6689 133.775 74.6735 133.839 74.7052 133.843C76.3165 134.075 91.8531 133.716 95.3707 133.603C95.3781 133.606 95.386 133.606 95.3937 133.606C95.4015 133.605 95.4089 133.602 95.4154 133.598C95.4219 133.593 95.4273 133.587 95.4312 133.581C95.435 133.574 95.4372 133.566 95.4376 133.558C95.438 133.551 95.4365 133.543 95.4333 133.536C95.4301 133.528 95.4253 133.522 95.4192 133.517C95.4132 133.512 95.406 133.509 95.3984 133.507C95.3908 133.506 95.3829 133.506 95.3753 133.508Z" fill="#263238"/>
<path d="M46.8461 51.5222C48.3893 53.9414 50.0233 56.3107 51.5938 58.7117C53.1642 61.1128 54.7437 63.5139 56.3006 65.9104C59.4052 70.7519 62.4311 75.6251 65.3783 80.5301C66.8167 82.8037 68.0472 85.2024 69.0548 87.697C69.9746 90.1921 70.6658 92.7657 71.12 95.3859C71.6011 98.0139 71.9189 100.669 72.2139 103.324C72.5165 106.148 72.8327 108.972 73.1625 111.798C73.807 117.581 74.4531 123.364 75.1006 129.146C75.1778 129.854 75.2549 130.562 75.3276 131.275C75.3276 131.379 75.1505 131.397 75.1369 131.275C74.4152 125.533 73.8161 119.769 73.1625 114.027C72.8357 111.161 72.5104 108.297 72.1867 105.435C71.8825 102.771 71.5921 100.102 71.179 97.4556C70.8 94.8437 70.2234 92.2642 69.4542 89.7395C68.6067 87.1253 67.4711 84.6135 66.0682 82.2504C63.2315 77.3529 60.2267 72.5417 57.222 67.7259C54.2172 62.9102 51.1308 58.0536 47.9627 53.2969C47.5723 52.7113 47.1774 52.1258 46.7689 51.5494C46.7372 51.5176 46.8189 51.4768 46.8461 51.5222Z" fill="#263238"/>
<path d="M50.5452 155.004C49.4287 154.936 20.5886 143.253 19.7898 142.145C19.7542 142.08 19.7384 142.006 19.7444 141.932C19.7444 140.938 21.746 137.47 23.4163 132.913C23.5207 132.623 24.2651 131.27 25.2954 129.45C28.1595 124.462 33.1522 115.87 33.1522 115.87L52.0022 123.359L42.9789 136.862L41.5764 140.13C41.5764 140.13 50.4227 149.276 51.167 150.569C51.9114 151.863 51.6572 155.067 50.5452 155.004Z" fill="#EB9481"/>
<path d="M50.5452 155.004C49.4287 154.936 20.5886 143.253 19.7898 142.145C19.7542 142.08 19.7384 142.006 19.7444 141.932C19.7444 140.938 21.746 137.47 23.4163 132.913C23.5207 132.623 24.2651 131.27 25.2954 129.45L42.9971 136.862L41.5946 140.13C41.5946 140.13 50.4408 149.276 51.1852 150.57C51.9296 151.863 51.6572 155.068 50.5452 155.004Z" fill="white"/>
<path d="M50.5455 155.004C49.4289 154.936 20.5889 143.253 19.7901 142.146C19.4814 141.724 20.7704 137.788 23.4212 132.914L41.5767 140.135C41.5767 140.135 50.4229 149.272 51.1718 150.574C51.9208 151.877 51.6575 155.068 50.5455 155.004Z" fill="#A6A6A6"/>
<path d="M50.5901 153.715C45.9196 151.709 26.8836 144.057 22.1132 142.432C22.0724 142.432 22.0633 142.432 22.1132 142.459C26.702 144.547 45.7971 152.045 50.572 153.806C50.6628 153.829 50.69 153.756 50.5901 153.715Z" fill="#263238"/>
<path d="M49.7736 148.845C49.2557 148.617 48.6962 148.5 48.1305 148.5C47.5648 148.5 47.0053 148.617 46.4874 148.845C45.5562 149.253 44.8181 150.004 44.4268 150.942C44.4268 150.969 44.4676 150.992 44.4812 150.965C45.0163 150.094 45.819 149.421 46.7691 149.045C47.7191 148.67 48.7653 148.612 49.7509 148.881C49.7585 148.879 49.765 148.874 49.7692 148.868C49.7734 148.861 49.775 148.853 49.7736 148.845Z" fill="#263238"/>
<path d="M43.2233 141.338C41.3487 140.552 38.8887 140.343 37.0958 141.419C37.0277 141.46 37.0958 141.555 37.1548 141.551C39.1534 141.348 41.1679 141.359 43.1643 141.583C43.195 141.586 43.2259 141.578 43.2512 141.56C43.2764 141.542 43.2944 141.516 43.3016 141.486C43.3088 141.456 43.3049 141.424 43.2905 141.397C43.276 141.37 43.2522 141.349 43.2233 141.338Z" fill="#263238"/>
<path d="M44.4538 142.491C42.5792 141.706 40.1191 141.497 38.3263 142.573C38.2582 142.613 38.3263 142.709 38.3853 142.704C40.3838 142.499 42.3986 142.51 44.3948 142.736C44.4255 142.739 44.4564 142.731 44.4816 142.714C44.5069 142.696 44.5248 142.669 44.5321 142.639C44.5393 142.609 44.5353 142.578 44.5209 142.55C44.5065 142.523 44.4826 142.502 44.4538 142.491Z" fill="#263238"/>
<path d="M45.6883 143.643C43.8092 142.858 41.3491 142.649 39.5608 143.725C39.4882 143.766 39.5608 143.861 39.6153 143.856C41.6138 143.651 43.6286 143.662 45.6248 143.888C45.6561 143.894 45.6883 143.887 45.7149 143.87C45.7416 143.852 45.7608 143.826 45.7688 143.795C45.7768 143.764 45.7729 143.731 45.758 143.703C45.7431 143.675 45.7183 143.654 45.6883 143.643Z" fill="#263238"/>
<path d="M46.9188 144.796C45.0397 144.011 42.5842 143.802 40.7913 144.873C40.7187 144.919 40.7913 145.014 40.8458 145.009C42.8443 144.804 44.859 144.815 46.8552 145.041C46.8866 145.046 46.9188 145.04 46.9454 145.023C46.9721 145.005 46.9913 144.979 46.9993 144.948C47.0072 144.917 47.0034 144.884 46.9885 144.856C46.9736 144.828 46.9487 144.807 46.9188 144.796Z" fill="#263238"/>
<path d="M25.1088 138.428C22.9892 137.584 21.6729 140.884 23.8016 141.728C25.9304 142.572 27.2512 139.272 25.1088 138.428Z" fill="#263238"/>
<path d="M47.2857 137.116C46.6458 135.941 45.1343 136.231 44.2129 136.817C42.6608 137.857 41.4087 139.286 40.5818 140.961C40.5782 140.968 40.5763 140.976 40.5762 140.984C40.5761 140.993 40.5779 141.001 40.5814 141.008C40.5849 141.016 40.59 141.022 40.5963 141.027C40.6027 141.032 40.6102 141.036 40.6181 141.038C40.6181 141.188 40.718 141.365 40.895 141.328C42.6152 140.934 44.4989 140.729 46.0421 139.822C46.9272 139.295 47.8894 138.228 47.2857 137.116ZM43.3596 140.198C42.5199 140.412 41.6757 140.584 40.8451 140.829C41.5321 140.001 42.2608 139.209 43.0283 138.455C43.4061 138.096 43.808 137.762 44.2311 137.457C44.8892 137.003 47.3765 136.163 46.7411 138.292C46.3916 139.467 44.3627 139.944 43.3596 140.198Z" fill="#263238"/>
<path d="M35.5894 139.781C37.1326 140.689 39.0162 140.902 40.7319 141.301C40.909 141.342 41.027 141.165 41.0134 141.011C41.0219 141.01 41.03 141.007 41.037 141.002C41.044 140.997 41.0495 140.99 41.0532 140.982C41.0568 140.975 41.0584 140.966 41.0578 140.958C41.0572 140.949 41.0544 140.941 41.0497 140.934C40.2241 139.255 38.9719 137.823 37.4186 136.781C36.5108 136.191 34.9903 135.896 34.3457 137.067C33.7012 138.238 34.6862 139.25 35.5894 139.781ZM34.8813 138.247C34.2504 136.118 36.7332 136.962 37.3913 137.421C37.8139 137.726 38.2144 138.061 38.5896 138.424C39.3556 139.179 40.0828 139.973 40.7683 140.802C39.9376 140.557 39.0934 140.38 38.2537 140.167C37.237 139.894 35.2263 139.44 34.8813 138.247Z" fill="#263238"/>
<path d="M44.445 136.109L23.3438 127.59C23.3438 127.59 49.5058 89.1225 49.6965 86.2585C49.8689 83.7258 38.3765 61.6578 37.9272 55.2262C37.437 48.2817 40.7776 42.9122 44.4541 39.5762L66.218 48.8309C66.218 48.8309 63.9213 52.5029 60.3174 54.5499C60.3174 54.5499 71.4785 80.0584 70.8431 87.9016C70.2077 95.7448 44.445 136.109 44.445 136.109Z" fill="#37474F"/>
<path d="M45.3793 132.097C42.3292 130.785 43.2234 131.116 40.1551 129.827C38.6573 129.201 28.8079 125.102 27.2919 124.762C27.2601 124.762 27.2374 124.807 27.2692 124.825C28.5809 125.629 38.512 129.555 40.0235 130.154C43.1144 131.37 42.2384 130.989 45.343 132.169C45.3477 132.175 45.3538 132.18 45.3609 132.183C45.3679 132.187 45.3757 132.188 45.3834 132.187C45.3911 132.186 45.3985 132.184 45.4049 132.179C45.4113 132.175 45.4165 132.169 45.4199 132.162C45.4234 132.155 45.425 132.148 45.4247 132.14C45.4243 132.132 45.422 132.125 45.4179 132.118C45.4139 132.111 45.4082 132.106 45.4014 132.102C45.3947 132.099 45.3871 132.097 45.3793 132.097Z" fill="#263238"/>
<path d="M63.8846 54.0824C61.6188 54.6106 59.4019 55.3303 57.2579 56.2338C57.2492 56.2368 57.2412 56.2415 57.2344 56.2475C57.2276 56.2536 57.222 56.2609 57.218 56.2691C57.214 56.2774 57.2116 56.2863 57.2111 56.2954C57.2105 56.3045 57.2118 56.3137 57.2147 56.3223C57.2177 56.331 57.2224 56.3389 57.2284 56.3458C57.2345 56.3526 57.2418 56.3582 57.2501 56.3622C57.2583 56.3662 57.2672 56.3686 57.2763 56.3691C57.2855 56.3697 57.2946 56.3684 57.3033 56.3654C59.5273 55.7164 61.7877 55.1082 63.9754 54.3411C64.1433 54.2821 64.0571 54.0461 63.8846 54.0824Z" fill="#263238"/>
<path d="M61.2935 53.2018C61.0819 53.578 60.8954 53.9677 60.7352 54.3683C60.5785 54.6724 60.4814 55.0037 60.4492 55.3442C60.4492 55.4123 60.54 55.4259 60.5808 55.385C60.8086 55.1127 60.9923 54.8064 61.1255 54.4773C61.3116 54.1187 61.5022 53.7647 61.6793 53.397C61.8018 53.1292 61.4342 52.9567 61.2935 53.2018Z" fill="#263238"/>
<path d="M61.5656 51.141C61.7018 50.8051 61.8334 50.4737 61.9741 50.1379C62.1148 49.802 62.2918 49.457 62.428 49.103C62.428 49.0485 62.5369 49.103 62.5142 49.1438C62.3781 49.4797 62.2918 49.8338 62.1874 50.1787C62.083 50.5237 61.965 50.8686 61.8515 51.2136C61.6382 51.8536 61.3977 52.489 61.1026 53.1108C61.4598 53.1286 61.8164 53.0666 62.1466 52.9293C62.4838 52.7134 62.7431 52.3953 62.8864 52.0215C63.077 51.6493 63.2541 51.268 63.4492 50.8959C63.6895 50.4935 63.8916 50.0695 64.0529 49.6295C64.0529 49.575 64.1618 49.6295 64.1391 49.6704C63.8432 50.6007 63.4555 51.4992 62.9817 52.3528C62.7775 52.6842 62.6186 53.0337 62.2464 53.1608C61.8436 53.2734 61.4219 53.3028 61.0073 53.247C60.9528 53.247 60.8893 53.247 60.9075 53.1653C61.0933 52.4801 61.313 51.8045 61.5656 51.141Z" fill="#263238"/>
<path d="M60.6399 55.3803C61.416 57.0189 62.0969 58.6529 62.8185 60.2869C63.5402 61.9208 64.1802 63.5004 64.8293 65.1253C66.1274 68.4024 67.2893 71.743 68.3106 75.1108C68.8144 76.7811 69.2819 78.4651 69.6995 80.1626C70.1594 81.8547 70.4962 83.578 70.7071 85.3188C70.8892 87.0567 70.7351 88.8134 70.2532 90.4931C69.7527 92.1534 69.1103 93.7676 68.3333 95.3179C67.8567 96.2983 67.6978 96.1667 67.9248 95.6719C68.5738 94.2649 70.2759 90.0029 70.1534 86.4217C70.0541 84.7072 69.7896 83.0064 69.3636 81.3427C68.9672 79.627 68.5209 77.9249 68.0246 76.2365C67.0579 72.9049 65.9095 69.6415 64.7294 66.3826C64.0667 64.567 63.3678 62.7515 62.6869 60.9359C62.0061 59.1204 61.3253 57.4501 60.5627 55.4439C60.54 55.3622 60.6172 55.3304 60.6399 55.3803Z" fill="#263238"/>
<path d="M44.6219 49.9656C44.9986 49.8249 45.5297 50.0564 45.9109 50.12C46.4047 50.2038 46.9036 50.2538 47.4042 50.2697C47.8995 50.2872 48.3954 50.2705 48.8884 50.2198C49.3849 50.207 49.8715 50.078 50.3091 49.8431C51.0271 49.3201 51.6425 48.6692 52.1247 47.9231C52.6991 47.1608 53.1735 46.3279 53.5362 45.4449C53.5362 45.3905 53.6316 45.4449 53.6134 45.4812C53.4545 45.985 53.3365 46.4934 53.1595 46.9881C52.9638 47.453 52.73 47.9008 52.4605 48.3271C52.0235 49.1849 51.3772 49.9186 50.5814 50.4604C49.7054 50.9597 48.5798 50.9143 47.6039 50.8734C47.038 50.8404 46.4751 50.7661 45.92 50.651C45.5206 50.5648 44.8488 50.5012 44.5947 50.1517C44.5827 50.1384 44.5738 50.1225 44.5687 50.1053C44.5635 50.0882 44.5622 50.0701 44.5648 50.0523C44.5674 50.0346 44.5738 50.0176 44.5837 50.0026C44.5936 49.9877 44.6066 49.975 44.6219 49.9656Z" fill="#263238"/>
<path d="M29.3665 123.554C32.8342 118.301 36.2383 113.006 39.579 107.668C42.9196 102.33 46.2148 96.9518 49.4646 91.5324C50.2408 90.2388 51.1349 88.9498 51.6342 87.5155C52.1789 85.9587 51.8702 84.4472 51.38 82.9222C50.4544 80.14 49.3724 77.4124 48.1393 74.7522C46.9229 72.0697 45.6111 69.4326 44.3221 66.7865C43.033 64.1403 41.685 61.5259 40.691 58.7663C39.7832 56.1292 39.4156 53.3968 40.1236 50.6644C40.8317 47.932 42.3567 45.5173 43.9499 43.2433C44.3675 42.6442 44.7987 42.0496 45.2208 41.4278C45.2525 41.3824 45.3206 41.4278 45.2889 41.4822C43.5323 43.8515 41.8212 46.3615 40.7908 49.1439C40.2642 50.5153 39.9697 51.9649 39.9194 53.4331C39.9108 54.9234 40.1422 56.4054 40.6047 57.8222C41.458 60.5818 42.8061 63.1917 44.0634 65.7879C45.3206 68.3841 46.6641 71.0712 47.9033 73.7446C49.1816 76.4352 50.3179 79.1911 51.3074 82.0008C51.7295 83.249 52.2152 84.5562 52.1789 85.8951C52.1471 87.3612 51.4481 88.682 50.7219 89.9166C47.5447 95.2952 44.2903 100.61 40.9769 105.893C37.6636 111.177 34.2549 116.46 30.8053 121.689L29.4981 123.663C29.43 123.745 29.312 123.65 29.3665 123.554Z" fill="#263238"/>
<path d="M67.4249 24.3661C69.3902 28.678 79.3168 34.6194 83.9646 35.2594C87.3052 35.7133 97.4632 35.8767 100.945 35.3456C105.029 34.7193 101.907 23.7125 99.4966 23.9984C92.8699 24.77 87.2416 25.6324 85.4715 25.6324C83.311 25.6324 71.6234 21.8833 70.2163 21.3523C66.7668 20.0678 66.3129 21.9196 67.4249 24.3661Z" fill="#EB9481"/>
<path d="M67.4888 25.5149C69.9761 29.1959 78.2414 35.2145 78.2414 35.2145L79.3898 32.6727L83.1888 24.2667C83.1888 24.2667 75.5953 21.8838 70.598 20.7944C70.0099 20.6606 69.4117 20.5756 68.8096 20.5403C65.6188 20.3678 65.3419 22.3377 67.4888 25.5149Z" fill="#FF5752"/>
<path d="M67.4888 25.5147C69.9761 29.1957 78.2414 35.2143 78.2414 35.2143L79.3898 32.6725C76.3079 29.0913 71.5466 23.6674 68.8096 20.5492C65.6188 20.3676 65.3419 22.3375 67.4888 25.5147Z" fill="#263238"/>
<path d="M76.7521 33.5072C77.383 31.9595 80.1881 25.7276 80.8871 24.4295C80.9324 24.3387 81.0051 24.3478 80.9642 24.4295C79.7475 27.5286 78.3626 30.559 76.8157 33.5072C76.7975 33.5617 76.7249 33.5435 76.7521 33.5072Z" fill="#263238"/>
<path d="M98.2803 24.1121C102.311 23.5855 107.299 22.6823 111.525 24.4752C111.999 24.6613 112.397 25.0019 112.655 25.4419C114.561 26.2135 114.77 27.3437 114.77 27.3437C116.327 28.6055 116.381 29.7947 116.381 29.7947C116.381 29.7947 118.614 30.7025 118.274 32.164C117.902 33.7799 114.843 32.164 112.619 32.2956C107.512 32.6134 100.364 34.4879 98.8885 34.7239L98.2803 24.1121Z" fill="#EB9481"/>
<path d="M107.036 28.8684C108.529 28.7663 110.027 28.7663 111.52 28.8684C113.146 29.0724 114.755 29.3986 116.332 29.8442C116.342 29.8478 116.353 29.8472 116.363 29.8426C116.373 29.8379 116.38 29.8295 116.384 29.8193C116.387 29.809 116.387 29.7978 116.382 29.788C116.377 29.7782 116.369 29.7707 116.359 29.7671C113.396 28.6047 110.171 28.2782 107.036 28.823C106.963 28.8139 106.963 28.8729 107.036 28.8684Z" fill="#263238"/>
<path d="M106.088 24.1529C108.58 24.28 110.136 24.6794 112.642 25.4328V25.4056C109.882 24.2527 108.752 24.1438 106.074 24.0439C105.988 24.0803 105.992 24.1529 106.088 24.1529Z" fill="#263238"/>
<path d="M106.491 33.0674C105.842 33.3715 106.001 33.7119 107.24 33.9979C108.479 34.2838 113.631 34.37 113.449 36.1674C113.268 37.9648 106.001 37.7379 103.972 37.1024C101.943 36.467 98.8887 34.7241 98.8887 34.7241C100.327 34.4835 103.704 33.5712 106.491 33.0674Z" fill="#EB9481"/>
<path d="M72.8215 31.2381C72.7897 32.0142 72.7171 32.804 72.6081 33.5892C72.6081 33.5574 72.6081 33.5302 72.6399 33.503C72.7897 33.0945 72.9395 32.6769 73.121 32.282C73.121 32.282 73.1664 32.282 73.1619 32.282C73.0746 32.7147 72.9439 33.1374 72.7715 33.5438C72.6898 33.739 72.6127 33.9296 72.5264 34.1202C72.472 34.4697 72.4084 34.8147 72.3403 35.1596C72.2042 35.8087 71.5914 38.5683 71.4326 39.0358C71.4053 39.1312 71.2873 39.1085 71.2964 38.9995C71.3282 38.4912 71.8411 35.6181 71.9455 34.9645C72.1482 33.7025 72.4194 32.4525 72.7579 31.2199C72.7806 31.1972 72.826 31.2154 72.8215 31.2381Z" fill="#263238"/>
<path d="M68.1012 51.8765C66.8893 52.4983 65.3279 53.4651 58.2927 52.0807C57.8388 51.9899 57.4121 51.881 56.9673 51.7494C50.3723 49.7704 42.4429 42.0135 42.0117 41.4643C42.0117 41.4643 52.492 24.4753 65.8953 19.133C67.552 18.4749 70.2935 19.7457 71.7958 21.3298C72.336 21.8972 73.5115 26.0684 73.0622 29.4453C72.6128 32.8223 69.3085 51.2546 68.1012 51.8765Z" fill="#FF5752"/>
<path d="M67.1574 29.2905C67.2081 30.0084 67.1076 30.729 66.8624 31.4056C66.8049 30.6875 66.9056 29.9655 67.1574 29.2905Z" fill="white"/>
<path d="M62.5863 40.8604C62.6152 41.2176 62.603 41.577 62.55 41.9315C62.5063 42.2887 62.4194 42.6392 62.2913 42.9755C62.26 42.6167 62.2722 42.2556 62.3276 41.8998C62.374 41.5446 62.4608 41.1958 62.5863 40.8604Z" fill="white"/>
<path d="M54.8203 32.1138C54.8714 32.8332 54.7709 33.5553 54.5253 34.2334C54.4682 33.5138 54.5689 32.7904 54.8203 32.1138Z" fill="white"/>
<path d="M70.1488 40.2705C70.1778 40.6293 70.1656 40.9902 70.1125 41.3462C70.0688 41.7034 69.9819 42.0539 69.8538 42.3902C69.8225 42.0314 69.8347 41.6703 69.8901 41.3145C69.936 40.9577 70.0228 40.6074 70.1488 40.2705Z" fill="white"/>
<path d="M60.1768 30.616C60.5339 30.5856 60.8933 30.5963 61.2479 30.6478C61.6053 30.6931 61.9558 30.7815 62.2919 30.911C61.5739 30.9626 60.8532 30.8621 60.1768 30.616Z" fill="white"/>
<path d="M51.3623 38.9722C52.0802 38.9216 52.8008 39.0221 53.4774 39.2672C52.7593 39.3248 52.0373 39.2241 51.3623 38.9722Z" fill="white"/>
<path d="M61.7471 48.018C62.465 47.9665 63.1858 48.067 63.8622 48.3131C63.1441 48.3697 62.4223 48.269 61.7471 48.018Z" fill="white"/>
<path d="M48.6436 44.732C49.3615 44.6814 50.082 44.7819 50.7587 45.027C50.0406 45.0837 49.3187 44.983 48.6436 44.732Z" fill="white"/>
<path d="M67.0889 21.1573C67.8068 21.1067 68.5273 21.2072 69.204 21.4523C68.4861 21.5029 67.7655 21.4024 67.0889 21.1573Z" fill="white"/>
<path d="M64.5244 24.0527C64.2949 24.3286 64.0328 24.5755 63.7437 24.788C63.4625 25.0055 63.158 25.1912 62.8359 25.3418C63.0639 25.0677 63.3228 24.821 63.6076 24.6065C63.8915 24.3882 64.199 24.2024 64.5244 24.0527Z" fill="white"/>
<path d="M50.5494 32.2817C50.3172 32.5552 50.0536 32.8004 49.7642 33.0125C49.4858 33.2341 49.1809 33.4201 48.8564 33.5662C49.0899 33.294 49.3533 33.0488 49.6417 32.8355C49.9207 32.6148 50.2256 32.4289 50.5494 32.2817Z" fill="white"/>
<path d="M68.0016 35.9946C67.7694 36.2695 67.5059 36.5163 67.2164 36.7299C66.9373 36.9506 66.6325 37.1365 66.3086 37.2837C66.5408 37.0088 66.8043 36.762 67.0938 36.5484C67.3744 36.3299 67.679 36.1442 68.0016 35.9946Z" fill="white"/>
<path d="M56.6998 43.1118C56.4677 43.3867 56.2041 43.6335 55.9146 43.8471C55.6351 44.0671 55.3304 44.253 55.0068 44.4009C55.239 44.126 55.5026 43.8792 55.7921 43.6656C56.0727 43.4471 56.3772 43.2613 56.6998 43.1118Z" fill="white"/>
<path d="M72.3317 26.2725C72.0995 26.5473 71.836 26.7941 71.5464 27.0078C71.2652 27.2253 70.9608 27.411 70.6387 27.5615C70.8709 27.2866 71.1344 27.0399 71.4239 26.8262C71.7034 26.6062 72.0082 26.4203 72.3317 26.2725Z" fill="white"/>
<path d="M72.0957 34.5197C71.8208 34.2875 71.574 34.0239 71.3604 33.7344C71.1395 33.4556 70.9535 33.1507 70.8066 32.8267C71.0825 33.0561 71.3294 33.3183 71.5419 33.6073C71.7588 33.8907 71.9444 34.1965 72.0957 34.5197Z" fill="white"/>
<path d="M46.9053 40.2023C46.6304 39.9701 46.3836 39.7066 46.1699 39.4171C45.9515 39.1365 45.7657 38.8319 45.6162 38.5093C45.8911 38.7415 46.1378 39.005 46.3515 39.2945C46.5715 39.574 46.7574 39.8788 46.9053 40.2023Z" fill="white"/>
<path d="M69.0322 46.9609C68.7564 46.7315 68.5094 46.4693 68.2969 46.1802C68.0794 45.899 67.8937 45.5945 67.7432 45.2725C68.018 45.5047 68.2648 45.7682 68.4785 46.0577C68.6975 46.3362 68.8833 46.6394 69.0322 46.9609Z" fill="white"/>
<path d="M57.9433 27.6933C57.6686 27.4628 57.4218 27.2007 57.208 26.9127C56.9915 26.6308 56.8058 26.3264 56.6543 26.0049C56.9301 26.2343 57.177 26.4965 57.3896 26.7856C57.6062 27.0674 57.7918 27.3718 57.9433 27.6933Z" fill="white"/>
<path d="M58.1386 50.8097C57.8638 50.5775 57.617 50.314 57.4033 50.0245C57.1856 49.7434 56.9999 49.4389 56.8496 49.1167C57.1255 49.3462 57.3724 49.6083 57.5849 49.8974C57.8033 50.1796 57.9891 50.4857 58.1386 50.8097Z" fill="white"/>
<path d="M60.0218 37.1749C59.7495 36.9414 59.5044 36.678 59.291 36.3897C59.0695 36.1113 58.8834 35.8064 58.7373 35.4819C59.0108 35.7142 59.256 35.9777 59.4681 36.2672C59.6887 36.5462 59.8747 36.851 60.0218 37.1749Z" fill="white"/>
<path d="M69.3405 25.8551C67.6294 25.5374 66.0226 22.0016 65.8184 19.6232C65.8184 19.4598 66.6172 18.1662 67.5295 16.5459C68.0833 15.5609 68.6688 14.4489 69.1363 13.3959C69.2316 13.1826 69.7899 13.9042 69.7899 13.9042L71.0063 14.812L75.0232 17.8939C74.0667 19.0417 73.2542 20.3023 72.604 21.6476C72.5398 21.7933 72.4911 21.9455 72.4587 22.1014C72.4569 22.1271 72.4569 22.1529 72.4587 22.1786C72.2091 23.0773 70.9881 26.1592 69.3405 25.8551Z" fill="#EB9481"/>
<path d="M72.4588 22.1237C72.457 22.1494 72.457 22.1752 72.4588 22.2009C72.2203 22.1309 71.988 22.0414 71.7643 21.9331C67.3661 19.8724 69.3042 13.981 69.3042 13.981L71.029 14.8343L75.0459 17.9162C74.0894 19.064 73.2769 20.3246 72.6267 21.6698C72.5547 21.8147 72.4984 21.9669 72.4588 22.1237Z" fill="#263238"/>
<path d="M79.6396 5.35254C79.6396 5.35254 81.6504 6.62796 81.6594 8.8974C81.6685 11.1668 80.7517 13.3863 80.561 13.4681C80.3704 13.5497 79.6396 5.35254 79.6396 5.35254Z" fill="#263238"/>
<path d="M69.6629 6.53315C68.4556 8.91606 68.5191 16.4279 70.026 18.3615C72.2137 21.1665 76.4258 22.1333 78.9721 19.36C81.4367 16.673 81.1826 6.88718 79.426 5.06255C76.8706 2.36646 71.4512 3.00644 69.6629 6.53315Z" fill="#EB9481"/>
<path d="M76.0718 12.5469C76.0718 12.5469 76.0309 12.5741 76.0355 12.5923C76.0627 13.1052 76.0082 13.6952 75.5498 13.8768C75.5498 13.8768 75.5498 13.9085 75.5498 13.904C76.1172 13.8132 76.1807 13.028 76.0718 12.5469Z" fill="#263238"/>
<path d="M75.6042 12.0248C74.7781 11.9795 74.7509 13.6316 75.518 13.6725C76.285 13.7133 76.2941 12.0612 75.6042 12.0248Z" fill="#263238"/>
<path d="M78.8719 12.5288C78.8719 12.5288 78.9127 12.5288 78.9127 12.5742C78.8855 13.0871 78.9445 13.6771 79.4074 13.8542C79.4074 13.8542 79.4074 13.8859 79.4074 13.8814C78.8355 13.7952 78.7675 13.0099 78.8719 12.5288Z" fill="#263238"/>
<path d="M79.3395 12.0026C80.1611 11.9526 80.2019 13.6048 79.4394 13.6502C78.6769 13.6956 78.6496 12.0434 79.3395 12.0026Z" fill="#263238"/>
<path d="M75.0865 10.7677C75.3033 10.706 75.5169 10.6332 75.7264 10.5498C75.9648 10.5067 76.182 10.3853 76.3437 10.2049C76.383 10.1388 76.3993 10.0616 76.3903 9.98534C76.3813 9.90903 76.3474 9.83783 76.2938 9.78274C76.171 9.68937 76.0254 9.63046 75.8723 9.61211C75.7191 9.59376 75.5637 9.61663 75.4223 9.67835C75.116 9.76035 74.8509 9.95273 74.678 10.2185C74.6434 10.2817 74.6277 10.3535 74.6328 10.4253C74.6378 10.4972 74.6633 10.5661 74.7063 10.6239C74.7493 10.6817 74.8079 10.726 74.8753 10.7515C74.9427 10.7769 75.016 10.7826 75.0865 10.7677Z" fill="#263238"/>
<path d="M79.9027 11.4986C79.6819 11.4493 79.4638 11.3887 79.2491 11.3171C79.0099 11.2854 78.788 11.1753 78.6182 11.0039C78.5745 10.9408 78.5534 10.8647 78.5583 10.7881C78.5633 10.7115 78.594 10.6388 78.6455 10.5818C78.7625 10.4817 78.9044 10.415 79.0561 10.3886C79.2079 10.3623 79.3639 10.3773 79.5078 10.432C79.8183 10.4963 80.0935 10.6744 80.2795 10.9313C80.3183 10.9921 80.3387 11.0629 80.3381 11.135C80.3375 11.2072 80.3159 11.2776 80.276 11.3377C80.2361 11.3979 80.1795 11.4451 80.1133 11.4736C80.047 11.5022 79.9738 11.5109 79.9027 11.4986Z" fill="#263238"/>
<path d="M74.9101 17.3992C75.0326 17.5217 75.1506 17.6851 75.3367 17.7033C75.5275 17.7032 75.7162 17.663 75.8905 17.5853C75.8905 17.5853 75.9222 17.5853 75.8905 17.6125C75.8161 17.7123 75.7159 17.7899 75.6008 17.8371C75.4857 17.8843 75.3598 17.8992 75.2369 17.8803C75.1332 17.852 75.0401 17.794 74.9691 17.7133C74.8981 17.6326 74.8523 17.5329 74.8374 17.4264C74.8338 17.4168 74.8342 17.4061 74.8384 17.3968C74.8427 17.3874 74.8505 17.3801 74.8601 17.3765C74.8698 17.3729 74.8804 17.3732 74.8898 17.3775C74.8992 17.3818 74.9064 17.3896 74.9101 17.3992Z" fill="#263238"/>
<path d="M77.8778 15.211C77.8778 15.211 77.9005 15.9735 77.8778 16.3321C77.1804 16.258 76.476 16.2825 75.7854 16.4047C75.622 16.441 75.6402 16.3094 75.8262 16.2231C76.3825 15.9689 77.0021 15.8867 77.6055 15.9871C77.6418 15.8918 77.5465 14.807 77.6055 14.8115C77.88 14.8654 78.1458 14.9571 78.3952 15.0839C78.3952 13.4862 78.1411 11.9067 78.1638 10.309C78.1638 10.2545 78.25 10.2454 78.2591 10.309C78.5816 11.9991 78.7337 13.7174 78.713 15.4379C78.7175 15.6331 78.014 15.2836 77.8778 15.211Z" fill="#263238"/>
<path d="M76.8564 16.0604C76.6755 16.5363 76.3398 16.9376 75.9033 17.1996C75.2179 17.4765 74.9955 16.8547 75.6854 16.2919C76.0472 16.109 76.4523 16.0289 76.8564 16.0604Z" fill="#263238"/>
<path d="M76.1446 17.0587C76.0721 17.1177 75.991 17.1652 75.904 17.1994C75.2731 17.4536 75.0235 16.9498 75.5318 16.4414C75.8768 16.4686 76.2717 16.5957 76.1446 17.0587Z" fill="#FF99BA"/>
<path d="M69.3184 12.9557C70.149 13.2098 71.1022 10.7135 71.3745 9.77845C71.6105 8.93422 71.8828 6.25174 71.9237 6.06565C71.9645 5.87955 75.5548 8.43948 77.6336 7.83127C79.7124 7.22306 81.124 5.33943 81.1558 4.46342C81.1875 3.58742 78.5868 1.36337 76.34 1.2499C74.0933 1.13643 71.0477 3.97322 71.0477 3.97322C71.4156 3.55574 71.7495 3.1095 72.0462 2.63879C72.0099 2.53894 70.5575 3.11992 70.2897 4.15478C70.2897 4.15478 70.5802 2.85212 70.4713 2.82942C70.3623 2.80673 69.2321 3.91876 69.4863 4.76299C69.4863 4.76299 68.1791 5.89317 68.0611 7.13228C67.9431 8.3714 68.3425 12.6561 69.3184 12.9557Z" fill="#263238"/>
<path d="M79.1216 7.35933C78.5034 7.69454 77.8376 7.93332 77.1472 8.0674C76.3723 8.13651 75.5924 8.01173 74.8778 7.70429C74.1578 7.42617 73.4891 7.03045 72.8988 6.53326C72.3768 6.1066 71.9093 5.58463 71.3511 5.20337C71.2103 5.10351 71.0515 5.30776 71.1377 5.43485C72.0691 6.75047 73.3997 7.73091 74.9322 8.2308C75.644 8.46286 76.4038 8.50623 77.1373 8.35666C77.8708 8.20709 78.553 7.8697 79.1171 7.37749C79.1171 7.37749 79.1307 7.35933 79.1216 7.35933Z" fill="#263238"/>
<path d="M70.185 12.733C70.185 12.733 68.896 10.1186 67.734 10.5407C66.5721 10.9629 67.2802 14.5803 68.4739 15.243C68.6201 15.3376 68.7839 15.4017 68.9555 15.4315C69.1271 15.4612 69.303 15.456 69.4725 15.4162C69.642 15.3764 69.8018 15.3027 69.9422 15.1996C70.0825 15.0966 70.2007 14.9662 70.2894 14.8164L70.185 12.733Z" fill="#EB9481"/>
<path d="M67.9652 11.5708C67.9652 11.5708 67.938 11.5708 67.9652 11.6071C68.7913 12.0973 69.1272 12.9688 69.3269 13.8766C69.2893 13.7805 69.2313 13.6937 69.1568 13.6222C69.0824 13.5507 68.9933 13.4963 68.8958 13.4626C68.7982 13.4289 68.6945 13.4169 68.5919 13.4272C68.4892 13.4376 68.39 13.4701 68.3011 13.5225C68.2739 13.5225 68.3011 13.5724 68.3011 13.5724C68.4635 13.5472 68.6297 13.5729 68.7768 13.6461C68.924 13.7192 69.0448 13.8362 69.1226 13.9809C69.2526 14.2233 69.356 14.479 69.4313 14.7435C69.4585 14.8297 69.6083 14.807 69.5947 14.7117C69.7899 13.5815 69.1544 11.8704 67.9652 11.5708Z" fill="#263238"/>
<path d="M61.6747 24.4074C60.7669 29.55 66.3406 46.8749 69.9127 50.1111C75.2278 54.9223 85.0544 58.0859 88.6174 59.1162C90.1697 59.5701 94.4635 48.645 92.8931 47.9234C89.5297 46.3938 79.0813 43.1258 78.0872 42.3088C77.0932 41.4918 71.1019 32.8361 68.433 27.8524C64.861 21.144 62.124 21.8067 61.6747 24.4074Z" fill="#EB9481"/>
<path d="M90.2471 46.9609C90.2471 46.9609 94.8858 48.1456 97.8769 49.0579C99.5472 49.5708 102.334 50.701 103.392 51.636C104.971 53.0385 110.681 59.9013 109.047 61.3219C107.567 62.611 103.41 56.0886 103.41 56.0886C103.41 56.0886 108.185 62.2978 106.133 63.5188C104.082 64.7397 100.328 56.7468 100.328 56.7468C100.328 56.7468 105.089 63.2373 102.761 64.1587C101 64.8532 97.2233 57.8043 97.2233 57.8043C97.2233 57.8043 101.281 63.4098 99.4928 64.2041C97.5229 65.0847 93.6331 58.7938 93.6331 58.7938C88.7674 60.0511 85.917 58.6576 84.0424 57.4321C83.6022 57.1326 90.2471 46.9609 90.2471 46.9609Z" fill="#EB9481"/>
<path d="M101.893 53.8327C102.483 54.5408 103.082 55.2579 103.604 56.0159C104.126 56.7739 104.621 57.5546 105.07 58.358C105.679 59.3971 106.167 60.5028 106.523 61.6532C105.742 59.6561 103.913 56.9101 103.391 56.1521C102.869 55.3941 102.383 54.6089 101.866 53.8509C101.852 53.8327 101.88 53.8146 101.893 53.8327Z" fill="#263238"/>
<path d="M99.1206 55.6712C100.128 56.47 102.239 59.4384 103.051 61.431C103.088 61.5127 103.051 61.5082 102.992 61.431C102.357 60.4461 99.7788 56.6334 99.0979 55.6848C99.0843 55.6712 99.107 55.6576 99.1206 55.6712Z" fill="#263238"/>
<path d="M96.4558 56.8328C97.7078 58.146 98.6969 59.6867 99.3698 61.3717C99.4015 61.4534 99.338 61.4398 99.2881 61.3717C98.3485 59.8421 97.6223 58.6484 96.4059 56.8737C96.3877 56.8328 96.4286 56.792 96.4558 56.8328Z" fill="#263238"/>
<path d="M66.7395 24.7837C62.5955 18.924 60.1173 21.0936 60.9479 27.4571C61.7286 33.4075 63.8119 40.4973 63.8119 40.4973L74.2513 35.4319C74.2513 35.4319 69.3766 28.5373 66.7395 24.7837Z" fill="#FF5752"/>
<path d="M69.2583 27.0894C69.3959 27.4203 69.4949 27.766 69.5534 28.1197C69.6171 28.4745 69.6399 28.8354 69.6214 29.1954C69.4853 28.8627 69.3878 28.5155 69.331 28.1605C69.2635 27.8077 69.2391 27.448 69.2583 27.0894Z" fill="white"/>
<path d="M63.0723 30.6522C63.7384 30.3812 64.4553 30.2573 65.1738 30.289C64.8426 30.4252 64.4969 30.5226 64.1434 30.5795C63.7906 30.6469 63.4309 30.6713 63.0723 30.6522Z" fill="white"/>
<path d="M63.3404 21.5386C63.0593 22.2019 62.64 22.7976 62.1104 23.286C62.3914 22.6227 62.8108 22.027 63.3404 21.5386Z" fill="white"/>
<path d="M72.1861 33.3896C72.0483 33.7216 71.8732 34.0368 71.6641 34.3292C71.4606 34.6253 71.2229 34.8965 70.9561 35.1371C71.2371 34.4738 71.6565 33.878 72.1861 33.3896Z" fill="white"/>
<path d="M64.9242 36.9434C64.5915 36.8072 64.2761 36.632 63.9847 36.4214C63.6884 36.218 63.4173 35.9804 63.1768 35.7134C63.8401 35.9945 64.4358 36.4138 64.9242 36.9434Z" fill="white"/>
<path d="M68.1011 26.5493C68.6594 27.3164 69.2358 28.0653 69.8077 28.8188C69.6625 28.4375 69.5354 28.0517 69.4265 27.6613H69.4537C69.5672 27.9609 69.6988 28.2559 69.8077 28.5691L69.9711 29.023C69.9852 29.054 69.9973 29.0858 70.0074 29.1183C70.4613 29.7038 70.9152 30.2893 71.3328 30.8885C71.8457 31.6056 72.3404 32.3318 72.8397 33.0581C73.339 33.7843 73.8428 34.6875 74.3829 35.4183C74.4328 35.4818 73.4751 35.8722 73.3707 35.9221C73.2664 35.972 73.2119 35.8858 73.3117 35.854C73.4116 35.8222 74.1741 35.3547 74.1832 35.3457C73.6839 34.6104 73.1075 33.9341 72.5855 33.2215C72.0636 32.5089 71.5461 31.7963 71.0423 31.0746C70.0211 29.604 69.086 28.0789 68.0693 26.6038L68.1011 26.5493Z" fill="#263238"/>
<path d="M61.1934 31.6695C61.3522 31.9781 61.5247 32.2822 61.6473 32.5999L61.8197 32.9948C61.5792 31.8646 61.3658 30.7254 61.1162 29.5952C61.5973 31.4108 62.083 33.2672 62.5278 35.1099C62.9499 36.871 63.4628 38.6503 63.7079 40.4477C64.0244 40.3088 64.3525 40.198 64.6883 40.1163C64.3513 40.3345 63.9884 40.5098 63.6081 40.6383C63.0609 38.8105 62.6064 36.9563 62.2464 35.0827C62.1329 34.5744 62.0285 34.066 61.9196 33.5577C61.8016 33.249 61.6609 32.954 61.5202 32.6499C61.3795 32.3458 61.2524 32.0054 61.1253 31.6831C61.1525 31.6649 61.1843 31.6468 61.1934 31.6695Z" fill="#263238"/>
<path d="M63.9663 38.7452C65.4187 37.9282 71.4872 34.7873 72.8443 34.2063C72.9396 34.1655 72.9896 34.2063 72.8943 34.2699C70.0137 35.9437 67.0439 37.4589 63.9981 38.8088C63.9618 38.8178 63.9254 38.7679 63.9663 38.7452Z" fill="#263238"/>
<path d="M230.285 158.073H91.9941L111.988 44.6689H250.278L230.285 158.073Z" fill="#FF938F"/>
<path d="M159.32 32.9224H114.063L111.988 44.669H160.423L159.32 32.9224Z" fill="#FF938F"/>
<g opacity="0.1">
<path d="M230.285 158.073H91.9941L111.988 44.6689H250.278L230.285 158.073Z" fill="black"/>
<path d="M159.319 32.9224H114.062L111.987 44.669H160.422L159.319 32.9224Z" fill="black"/>
</g>
<path d="M109.178 37.7154C108.876 36.4166 108.876 35.0655 109.178 33.7666C109.481 35.0655 109.481 36.4166 109.178 37.7154Z" fill="#263238"/>
<path d="M105.157 38.8776C104.695 38.3984 104.296 37.8613 103.972 37.2799C103.632 36.7106 103.365 36.1006 103.178 35.4644C103.641 35.9408 104.04 36.4765 104.362 37.0575C104.702 37.6288 104.969 38.2402 105.157 38.8776Z" fill="#263238"/>
<path d="M102.252 41.8958C100.976 41.508 99.807 40.8325 98.834 39.9214C99.4703 40.1063 100.08 40.3717 100.65 40.7111C101.231 41.0375 101.769 41.4355 102.252 41.8958Z" fill="#263238"/>
<path d="M101.235 45.9628C99.9361 46.2654 98.585 46.2654 97.2861 45.9628C98.585 45.6602 99.9361 45.6602 101.235 45.9628Z" fill="#263238"/>
<path d="M102.415 49.9839C101.934 50.4436 101.397 50.8416 100.818 51.1685C100.248 51.5079 99.6383 51.7733 99.002 51.9583C99.4812 51.4961 100.018 51.0979 100.6 50.7736C101.168 50.4326 101.778 50.1671 102.415 49.9839Z" fill="#263238"/>
<path d="M105.429 52.8843C105.043 54.1616 104.367 55.3327 103.455 56.3066C103.64 55.6695 103.907 55.0592 104.249 54.491C104.573 53.9075 104.969 53.3676 105.429 52.8843Z" fill="#263238"/>
<path d="M109.496 53.8872C109.654 54.5332 109.73 55.1966 109.723 55.8616C109.732 56.5268 109.656 57.1904 109.496 57.836C109.333 57.1908 109.257 56.5269 109.269 55.8616C109.261 55.1966 109.338 54.5332 109.496 53.8872Z" fill="#263238"/>
<path d="M113.518 52.7483C113.98 53.2276 114.378 53.7646 114.702 54.346C115.043 54.9143 115.309 55.5246 115.492 56.1616C114.58 55.1877 113.904 54.0166 113.518 52.7393V52.7483Z" fill="#263238"/>
<path d="M116.418 49.707C117.055 49.8903 117.665 50.1558 118.234 50.4968C118.815 50.8211 119.352 51.2193 119.831 51.6814C119.194 51.4982 118.584 51.2327 118.016 50.8917C117.434 50.5674 116.897 50.1692 116.418 49.707Z" fill="#263238"/>
<path d="M117.421 45.6405C118.721 45.3379 120.074 45.3379 121.374 45.6405C120.074 45.943 118.721 45.943 117.421 45.6405Z" fill="#263238"/>
<path d="M116.259 41.6189C116.74 41.1596 117.276 40.763 117.857 40.4388C118.424 40.0945 119.035 39.8274 119.672 39.6445C118.698 40.5569 117.527 41.2325 116.25 41.6189H116.259Z" fill="#263238"/>
<path d="M113.24 38.7184C113.427 38.0828 113.692 37.4729 114.03 36.9029C114.354 36.3214 114.752 35.7844 115.215 35.3052C115.031 35.9421 114.766 36.5524 114.425 37.1207C114.101 37.7022 113.702 38.2392 113.24 38.7184Z" fill="#263238"/>
<path d="M230.081 158.073H91.495L71.8145 48.7861H210.405L230.081 158.073Z" fill="#FF938F"/>
<path d="M119.84 115.593C123.021 115.593 125.6 113.015 125.6 109.834C125.6 106.652 123.021 104.074 119.84 104.074C116.659 104.074 114.08 106.652 114.08 109.834C114.08 113.015 116.659 115.593 119.84 115.593Z" fill="#DBECFF"/>
<path d="M165.374 115.593C168.555 115.593 171.134 113.015 171.134 109.834C171.134 106.652 168.555 104.074 165.374 104.074C162.193 104.074 159.614 106.652 159.614 109.834C159.614 113.015 162.193 115.593 165.374 115.593Z" fill="#DBECFF"/>
<path d="M150.881 116.515L150.564 115.911C150.536 115.857 147.559 110.356 141.572 110.356C136.125 110.356 134.764 115.535 134.727 115.757L134.564 116.415L133.243 116.097L133.402 115.435C133.402 115.371 135.027 108.994 141.572 108.994C148.38 108.994 151.635 115.022 151.771 115.28L152.089 115.88L150.881 116.515Z" fill="#DBECFF"/>
<path d="M220.93 109.393L220.835 108.939C221.13 108.876 221.42 108.808 221.711 108.73L221.824 109.184C221.516 109.262 221.23 109.33 220.93 109.393Z" fill="#263238"/>
<path d="M223.581 108.663L223.436 108.236C224.003 108.041 224.571 107.828 225.12 107.596L225.297 108.014C224.739 108.25 224.162 108.468 223.581 108.663ZM226.963 107.215L226.759 106.815C227.29 106.539 227.821 106.239 228.325 105.908L228.561 106.293C228.043 106.652 227.503 106.956 226.963 107.215ZM230.086 105.295L229.818 104.927C230.308 104.569 230.78 104.192 231.225 103.806L231.524 104.147C231.048 104.56 230.594 104.945 230.081 105.313L230.086 105.295ZM232.854 102.88L232.523 102.567C232.941 102.113 233.335 101.659 233.699 101.205L234.057 101.482C233.68 101.981 233.276 102.449 232.863 102.898L232.854 102.88ZM235.101 99.9753L234.715 99.7347C235.029 99.2277 235.308 98.7 235.55 98.1552L235.968 98.3413C235.711 98.9092 235.42 99.461 235.097 99.9935L235.101 99.9753ZM236.603 96.6075L236.15 96.4804C236.315 95.9109 236.438 95.3298 236.517 94.742L236.971 94.801C236.896 95.4181 236.771 96.0283 236.599 96.6256L236.603 96.6075ZM237.107 92.9764H236.653V92.8447C236.653 92.2955 236.622 91.7372 236.567 91.188L237.021 91.1426C237.081 91.7081 237.111 92.2762 237.112 92.8447L237.107 92.9764ZM236.29 89.4224C236.168 88.8372 236.017 88.2585 235.836 87.6886L236.29 87.5524C236.476 88.1424 236.635 88.7416 236.744 89.3271L236.29 89.4224ZM235.215 86.0046C234.997 85.469 234.761 84.9198 234.47 84.3661L234.879 84.1618C235.156 84.7247 235.41 85.2875 235.632 85.8322L235.215 86.0046ZM233.626 82.7684C233.345 82.2737 233.036 81.7517 232.718 81.2161L233.104 80.9756C233.435 81.5157 233.748 82.0422 234.012 82.546L233.626 82.7684ZM231.729 79.6865C231.397 79.1872 231.061 78.6834 230.717 78.1796L231.093 77.9254C231.438 78.4293 231.774 78.9331 232.105 79.4414L231.729 79.6865ZM229.686 76.6818C229.346 76.1825 229.001 75.6787 228.665 75.1794L229.042 74.9252C229.378 75.4245 229.718 75.9283 230.058 76.4231L229.686 76.6818ZM227.657 73.6589C227.326 73.1505 227.004 72.6331 226.686 72.1157L227.072 71.8796C227.39 72.3971 227.712 72.9054 228.039 73.4138L227.657 73.6589ZM225.765 70.5407C225.456 69.9915 225.17 69.4468 224.911 68.9248L225.32 68.7206C225.574 69.238 225.86 69.7736 226.159 70.3183L225.765 70.5407ZM224.153 67.2727C223.913 66.7053 223.699 66.1289 223.5 65.5661L223.954 65.4208C224.144 65.97 224.358 66.5374 224.594 67.0957L224.153 67.2727ZM222.973 63.8095C222.823 63.2195 222.692 62.6158 222.592 61.994L223.046 61.9214C223.146 62.5023 223.268 63.0924 223.418 63.6734L222.973 63.8095ZM222.365 60.1784C222.32 59.6201 222.297 59.0573 222.297 58.4945V58.3447H222.751V58.49C222.751 59.0392 222.751 59.5929 222.819 60.1376L222.365 60.1784ZM222.819 56.5473L222.365 56.5019C222.365 56.3794 222.388 56.2523 222.401 56.1207C222.456 55.635 222.524 55.1494 222.606 54.6864L223.059 54.7635C222.982 55.2174 222.914 55.694 222.86 56.1706C222.878 56.3113 222.878 56.4339 222.842 56.5609L222.819 56.5473ZM223.45 53.0161L222.996 52.8935C223.164 52.2944 223.359 51.7089 223.577 51.1506L223.999 51.314C223.793 51.876 223.617 52.4487 223.472 53.0297L223.45 53.0161ZM246.067 50.3699C245.813 50.3699 245.55 50.3336 245.291 50.2973C244.937 50.2474 244.583 50.1884 244.233 50.1203L244.324 49.6664C244.66 49.7299 245.009 49.7889 245.354 49.8389C245.599 49.8706 245.849 49.8933 246.09 49.907L246.067 50.3699ZM247.932 50.2292L247.837 49.7753C248.407 49.6577 248.953 49.446 249.453 49.149L249.689 49.5348C249.154 49.8656 248.568 50.1049 247.955 50.2428L247.932 50.2292ZM224.757 49.6891L224.353 49.4758C224.642 48.9344 224.962 48.4101 225.311 47.9053L225.683 48.164C225.351 48.6583 225.05 49.1721 224.78 49.7027L224.757 49.6891ZM242.459 49.6618C241.873 49.476 241.297 49.2593 240.734 49.0128L240.92 48.5952C241.466 48.8377 242.025 49.0483 242.595 49.2261L242.459 49.6618ZM251.082 48.2457L250.706 47.9915C251.029 47.5227 251.22 46.9756 251.259 46.4075L251.713 46.4393C251.675 47.0904 251.462 47.7191 251.096 48.2593L251.082 48.2457ZM239.1 48.1776C238.569 47.8689 238.055 47.531 237.561 47.1655L237.829 46.8024C238.31 47.1568 238.81 47.4841 239.327 47.7828L239.1 48.1776ZM226.799 46.7615L226.464 46.4574C226.875 46.0003 227.313 45.5684 227.775 45.1638L228.075 45.5042C227.63 45.9026 227.208 46.327 226.813 46.7751L226.799 46.7615ZM236.145 45.9944C235.693 45.578 235.264 45.1371 234.861 44.6736L235.201 44.3741C235.594 44.8242 236.01 45.253 236.449 45.6586L236.145 45.9944ZM250.919 44.7644C250.659 44.2457 250.3 43.7831 249.861 43.4027L250.161 43.0623C250.643 43.4795 251.04 43.9867 251.328 44.5556L250.919 44.7644ZM229.486 44.4058L229.228 44.0336C229.736 43.687 230.261 43.3673 230.803 43.0759L231.016 43.4754C230.495 43.7635 229.989 44.0786 229.5 44.4194L229.486 44.4058ZM233.726 43.2257C233.553 42.9806 233.385 42.731 233.226 42.4723L232.636 42.7038L232.464 42.2862L232.986 42.0774C232.904 41.9412 232.823 41.8051 232.745 41.6689L233.14 41.4465C233.231 41.6053 233.322 41.7642 233.417 41.9004C233.671 41.8096 233.93 41.7234 234.193 41.6417L234.325 42.0955C234.102 42.1636 233.871 42.2362 233.662 42.3134C233.803 42.5358 233.948 42.7673 234.116 42.9625L233.726 43.2257ZM248.4 42.445C247.961 42.2262 247.506 42.041 247.038 41.8913L246.739 41.796L246.87 41.3421L247.179 41.4419C247.665 41.5969 248.139 41.7897 248.595 42.0184L248.4 42.445ZM236.063 41.6326L235.968 41.1787C236.554 41.0471 237.162 40.9381 237.784 40.8519L237.852 41.3058C237.252 41.4011 236.658 41.5146 236.077 41.6462L236.063 41.6326ZM245.005 41.3875C244.438 41.2876 243.838 41.2105 243.226 41.156L243.262 40.7021C243.893 40.7566 244.506 40.8337 245.077 40.9381L245.005 41.3875ZM239.626 41.1242L239.595 40.6703C240.135 40.6386 240.675 40.6204 241.21 40.6204H241.433V41.0743H241.215C240.702 41.0879 240.166 41.1015 239.64 41.1378L239.626 41.1242ZM231.956 40.0394C231.711 39.4857 231.502 38.9093 231.297 38.3237L231.751 38.183C231.942 38.7549 232.155 39.3178 232.391 39.8579L231.956 40.0394ZM230.807 36.5536C230.671 35.9681 230.558 35.3599 230.471 34.738L230.925 34.6745C231.012 35.2736 231.12 35.8682 231.252 36.4446L230.807 36.5536ZM230.299 32.9225C230.276 32.514 230.263 32.0964 230.263 31.6788C230.263 31.4837 230.263 31.2839 230.263 31.0888H230.717C230.717 31.2839 230.717 31.4746 230.717 31.6697C230.717 32.0782 230.717 32.4913 230.748 32.8862L230.299 32.9225ZM230.839 29.2914L230.385 29.246C230.449 28.6469 230.535 28.0341 230.639 27.4304L231.093 27.5076C230.971 28.1113 230.884 28.6922 230.825 29.3004L230.839 29.2914ZM231.461 25.7465L231.007 25.6376C231.152 25.0521 231.32 24.462 231.506 23.872L231.96 24.0127C231.756 24.6073 231.588 25.1837 231.447 25.7556L231.461 25.7465ZM232.55 22.3106L232.128 22.1472C232.351 21.5798 232.582 21.0125 232.859 20.4633L233.267 20.663C232.995 21.2076 232.754 21.7614 232.537 22.3378L232.55 22.3106ZM234.112 19.0744L233.717 18.8429C234.025 18.3209 234.357 17.7989 234.702 17.2997L235.074 17.5584C234.72 18.0577 234.398 18.566 234.098 19.0834L234.112 19.0744ZM236.159 16.1196L235.805 15.8336C236.186 15.3797 236.594 14.8986 237.016 14.4719L237.343 14.7851C236.917 15.2118 236.517 15.6657 236.145 16.1286L236.159 16.1196ZM238.628 13.5052L238.324 13.1693C238.778 12.7653 239.231 12.3659 239.717 11.9801L239.998 12.3387C239.513 12.7245 239.05 13.1194 238.614 13.5142L238.628 13.5052ZM241.446 11.263L241.188 10.8862C241.682 10.5458 242.2 10.2099 242.726 9.89221L242.958 10.278C242.431 10.6003 241.941 10.9316 241.433 11.272L241.446 11.263ZM244.528 9.3884L244.315 8.98897C244.851 8.70302 245.404 8.4307 245.958 8.17652L246.149 8.58955C245.572 8.84827 245.041 9.1206 244.515 9.39747L244.528 9.3884ZM247.81 7.88149L247.642 7.45484C248.214 7.23243 248.79 7.00095 249.362 6.83301L249.507 7.2869C248.931 7.45937 248.359 7.66816 247.796 7.89057L247.81 7.88149Z" fill="#263238"/>
<path d="M251.309 6.73299L251.195 6.2791C251.758 6.13386 252.103 6.07031 252.103 6.07031L252.185 6.5242C252.185 6.5242 251.858 6.59228 251.309 6.73299Z" fill="#263238"/>
<path d="M259.333 3.80112C258.176 0.215411 250.423 1.50445 251.935 6.19311C253.446 10.8818 260.491 7.39138 259.333 3.80112Z" fill="#263238"/>
<path d="M247.719 2.36676C247.778 0.791767 249.966 -0.420114 253.061 0.138168C256.157 0.696449 259.066 2.78433 259.066 2.78433C259.066 2.78433 256.012 4.6362 252.884 4.97661C249.757 5.31703 247.66 3.93721 247.719 2.36676Z" fill="#EBEBEB"/>
<path d="M259.066 2.77542C257.459 2.77542 255.857 2.73003 254.255 2.6801C252.652 2.63017 251.046 2.54848 249.443 2.42139C251.05 2.42139 252.657 2.46224 254.259 2.51216C255.861 2.56209 257.468 2.64379 259.066 2.77542Z" fill="#263238"/>
<path d="M250.828 0.964355C251.74 1.40073 252.6 1.93817 253.393 2.56658C252.936 2.35238 252.493 2.10983 252.067 1.84036C251.637 1.57274 251.224 1.28024 250.828 0.964355Z" fill="#263238"/>
<path d="M255.035 2.62549C254.214 3.29093 253.324 3.86614 252.38 4.34118C253.205 3.67491 254.1 3.09968 255.049 2.62549H255.035Z" fill="#263238"/>
<path d="M255.503 1.74072C255.961 1.96065 256.362 2.2838 256.674 2.68481C256.445 2.57672 256.23 2.44106 256.034 2.28085C255.837 2.12164 255.659 1.94042 255.503 1.74072Z" fill="#263238"/>
<path d="M250.669 11.694C251.636 12.9377 254.118 12.6381 256.302 10.3778C258.485 8.11739 259.642 4.71777 259.642 4.71777C259.642 4.71777 256.066 4.99011 253.338 6.53332C250.61 8.07654 249.698 10.4458 250.669 11.694Z" fill="#EBEBEB"/>
<path d="M259.642 4.71777C258.335 5.62555 257.064 6.63318 255.789 7.60904C254.513 8.5849 253.265 9.59253 252.044 10.6319C253.351 9.72415 254.622 8.72106 255.893 7.7452C257.164 6.76934 258.403 5.76172 259.642 4.71777Z" fill="#263238"/>
<path d="M254.005 10.9903C254.248 10.5494 254.464 10.0947 254.654 9.62862C254.847 9.16121 255.011 8.68218 255.144 8.19434C254.901 8.63486 254.684 9.08956 254.495 9.556C254.304 10.0241 254.14 10.503 254.005 10.9903Z" fill="#263238"/>
<path d="M256.465 7.19571C255.403 7.13894 254.338 7.19523 253.288 7.36365C253.817 7.39542 254.348 7.39542 254.877 7.36365C255.409 7.33769 255.939 7.28162 256.465 7.19571Z" fill="#263238"/>
<path d="M257.342 7.64546C257.463 7.4213 257.558 7.18364 257.623 6.93739C257.69 6.69294 257.73 6.44174 257.741 6.18848C257.5 6.6378 257.363 7.13589 257.342 7.64546Z" fill="#263238"/>
<path d="M259.334 3.80129C259.078 3.88453 258.802 3.88982 258.543 3.8165C258.284 3.74319 258.052 3.59456 257.877 3.38944C257.702 3.18432 257.592 2.93193 257.561 2.66424C257.53 2.39655 257.579 2.1256 257.701 1.8857C257.824 1.64579 258.015 1.44773 258.251 1.31659C258.486 1.18546 258.755 1.12714 259.024 1.14903C259.293 1.17092 259.549 1.27204 259.76 1.43957C259.971 1.6071 260.128 1.83351 260.21 2.09013C260.32 2.43322 260.29 2.80596 260.125 3.12669C259.961 3.44743 259.677 3.69001 259.334 3.80129Z" fill="#455A64"/>
<path d="M260.169 6.39254C259.912 6.47544 259.637 6.48052 259.378 6.40714C259.119 6.33376 258.888 6.18522 258.713 5.98029C258.538 5.77535 258.428 5.52324 258.397 5.2558C258.366 4.98837 258.414 4.71763 258.537 4.47781C258.659 4.238 258.85 4.03987 259.085 3.90847C259.32 3.77708 259.589 3.71832 259.857 3.73962C260.126 3.76092 260.382 3.86133 260.593 4.02815C260.804 4.19497 260.962 4.42072 261.045 4.67684C261.1 4.84701 261.121 5.0264 261.107 5.20474C261.093 5.38308 261.043 5.55688 260.962 5.71622C260.881 5.87555 260.769 6.01729 260.633 6.13333C260.496 6.24938 260.339 6.33746 260.169 6.39254Z" fill="#455A64"/>
<defs>
<linearGradient id="paint0_linear_117_1121" x1="8.75977" y1="155.005" x2="269.055" y2="155.005" gradientUnits="userSpaceOnUse">
<stop stop-color="#EEEEEE" stop-opacity="0.3"/>
<stop offset="1" stop-color="#EEEEEE" stop-opacity="0.2"/>
</linearGradient>
</defs>
</svg>
