<svg width="35" height="36" viewBox="0 0 35 36" fill="none" xmlns="http://www.w3.org/2000/svg">
<path d="M9.69757 28.1474L13.2201 26.708C12.9097 25.7825 12.6444 24.8404 12.4242 23.8817C12.2049 22.923 12.045 21.951 11.9443 20.9657L10.0792 22.213C9.95196 22.3051 9.85609 22.4104 9.79154 22.5291C9.727 22.6477 9.6952 22.7797 9.69615 22.9249L9.69757 28.1474ZM14.6524 26.5428H20.3477C20.7748 25.3933 21.1189 24.1361 21.3799 22.7711C21.641 21.4062 21.7715 19.9847 21.7715 18.5068C21.7715 16.3578 21.444 14.3792 20.789 12.571C20.1341 10.7627 19.0378 9.01617 17.5 7.33133C15.9623 9.01807 14.866 10.7651 14.211 12.5724C13.5561 14.3797 13.2286 16.3583 13.2286 18.5082C13.2286 19.9871 13.3591 21.4085 13.6202 22.7725C13.8812 24.1366 14.2253 25.3933 14.6524 26.5428ZM17.5 18.7118C16.8992 18.7118 16.3933 18.5059 15.9823 18.0939C15.5703 17.6829 15.3643 17.177 15.3643 16.5761C15.3643 15.9753 15.5703 15.4694 15.9823 15.0583C16.3942 14.6473 16.9002 14.4414 17.5 14.4404C18.0999 14.4395 18.6059 14.6454 19.0178 15.0583C19.4298 15.4694 19.6358 15.9753 19.6358 16.5761C19.6358 17.177 19.4298 17.6829 19.0178 18.0939C18.6059 18.5049 18.0999 18.7109 17.5 18.7118ZM25.3025 28.1474V22.9534C25.3025 22.8072 25.2712 22.6705 25.2086 22.5433C25.144 22.4152 25.0477 22.3051 24.9195 22.213L23.0558 20.9657C22.9551 21.951 22.7719 23.0189 22.5062 24.1693C22.2404 25.3197 21.9983 26.175 21.78 26.735L25.3025 28.1474ZM17.5 5.4519C19.4659 7.19655 20.9063 9.16235 21.8213 11.3493C22.7373 13.5363 23.1953 15.9724 23.1953 18.6577C23.1953 18.7669 23.2 18.8808 23.2095 18.9995C23.219 19.1181 23.2143 19.2415 23.1953 19.3696L25.6656 21.0341C25.9959 21.2401 26.2555 21.5153 26.4444 21.8599C26.6333 22.2044 26.7278 22.5689 26.7278 22.9534V30.239L21.0681 27.9666H13.9049L8.27234 30.239V22.9263C8.27234 22.5428 8.36251 22.1783 8.54286 21.8328C8.72226 21.4883 8.97712 21.213 9.30745 21.007L11.8048 19.3412V18.6577C11.8048 15.9715 12.2628 13.5353 13.1788 11.3493C14.0938 9.16235 15.5342 7.19655 17.5 5.4519Z" fill="#003E85"/>
</svg>
