<svg width="55" height="56" viewBox="0 0 55 56" fill="none" xmlns="http://www.w3.org/2000/svg">
<path d="M25.2087 46.3332H14.8962C11.4205 46.3332 8.45123 45.13 5.98845 42.7238C3.52567 40.3175 2.29352 37.3766 2.29199 33.9009C2.29199 30.9217 3.18956 28.2672 4.9847 25.9373C6.77984 23.6075 9.1288 22.1179 12.0316 21.4686C12.9864 17.9547 14.8962 15.1092 17.7607 12.9321C20.6253 10.755 23.8719 9.6665 27.5003 9.6665C31.9691 9.6665 35.7603 11.2233 38.8739 14.3369C41.9875 17.4505 43.5435 21.2409 43.542 25.7082C46.1774 26.0137 48.3644 27.1504 50.103 29.1182C51.8416 31.0859 52.7102 33.3868 52.7087 36.0207C52.7087 38.8853 51.7064 41.3205 49.702 43.3265C47.6975 45.3325 45.2623 46.3347 42.3962 46.3332H29.792V29.9478L33.4587 33.4998L36.667 30.2915L27.5003 21.1248L18.3337 30.2915L21.542 33.4998L25.2087 29.9478V46.3332Z" fill="#C3C6C9"/>
</svg>
