<svg width="24" height="24" viewBox="0 0 24 24" fill="none" xmlns="http://www.w3.org/2000/svg">
<path d="M21 19.75C21 17.66 19.33 14.682 17 14.023M15 19.75C15 17.099 12.314 13.75 9 13.75C5.686 13.75 3 17.099 3 19.75" stroke="#003E85" stroke-width="1.5" stroke-linecap="round" stroke-linejoin="round"/>
<path d="M9 10.25C10.6569 10.25 12 8.90685 12 7.25C12 5.59315 10.6569 4.25 9 4.25C7.34315 4.25 6 5.59315 6 7.25C6 8.90685 7.34315 10.25 9 10.25Z" stroke="#003E85" stroke-width="1.5" stroke-linecap="round" stroke-linejoin="round"/>
<path d="M15 10.25C15.7956 10.25 16.5587 9.93393 17.1213 9.37132C17.6839 8.80871 18 8.04565 18 7.25C18 6.45435 17.6839 5.69129 17.1213 5.12868C16.5587 4.56607 15.7956 4.25 15 4.25" stroke="#003E85" stroke-width="1.5" stroke-linecap="round" stroke-linejoin="round"/>
</svg>
