<svg width="18" height="18" viewBox="0 0 18 18" fill="none" xmlns="http://www.w3.org/2000/svg">
<g clip-path="url(#clip0_651_8517)">
<path d="M14.9754 4.36841L14.2245 1.61714L11.6728 2.31357L10.6099 0.167969L2.1314 4.36841H0V17.8311H16.8424V14.2024H18V7.93567H16.8424V4.36841H14.9754ZM13.339 3.16754L13.6667 4.36843H12.6909H11.2819H8.93899L11.0028 3.80514L12.244 3.46639L13.339 3.16754ZM15.5798 16.5686H1.26252V9.69242V7.29492V7.10493V5.80923V5.63095H1.91571H2.427H4.31321H11.9074H13.3164H14.0113H14.6657H15.32H15.5798V6.58289V7.93565H15.2947H14.6403H13.0093H10.1653H9.14014V8.44356V9.85254V10.0151V10.6695V11.3239V14.2024H15.5799V16.5685H15.5798V16.5686ZM16.7375 12.9399H16.2111H15.5798H10.4027V10.9793V10.325V9.6706V9.22707V9.1982H10.4609H12.1335H14.531H15.5799H16.2111H16.2937H16.7375V12.9399ZM10.0391 1.85973L10.4317 2.6523L5.99517 3.86317L10.0391 1.85973Z" />
<path d="M11.4026 10.4814V10.7062V11.7176H12.6388V10.4814H12.2261H11.4026Z" />
</g>
<defs>
<clipPath id="clip0_651_8517">
<rect width="18" height="18" fill="white"/>
</clipPath>
</defs>
</svg>
